<svg width="45" height="37" viewBox="0 0 45 37" fill="none" xmlns="http://www.w3.org/2000/svg">
<g clip-path="url(#clip0_1_10)">
<path d="M29.1966 5.15283C28.7287 5.15283 28.2608 5.18296 27.7973 5.24251C26.1952 2.09616 22.448 0 18.1671 0C13.1387 0 8.8723 2.98591 7.91947 6.90641C3.53421 6.99608 0 9.94627 0 13.5599C0 16.4737 2.37866 19.0939 5.74181 19.9213C6.46456 20.116 7.21211 20.2155 7.96566 20.2155H29.5678C30.3932 20.2155 31.2126 20.0943 32.0038 19.8561C35.8271 18.8536 38.3922 15.9762 38.3922 12.6842C38.3913 8.53178 34.2661 5.15283 29.1966 5.15283ZM30.9329 17.1953L30.8465 17.2191C30.4265 17.3487 29.9963 17.4131 29.5669 17.4131H7.9648C7.57648 17.4131 7.18987 17.362 6.76991 17.2492C4.79838 16.7637 3.42131 15.2469 3.42131 13.5599C3.42131 11.4357 5.53225 9.70666 8.1256 9.70666C8.44635 9.70666 8.77137 9.73399 9.08955 9.78723L11.103 10.1256L11.1449 8.4428C11.221 5.33288 14.3721 2.80236 18.1671 2.80236C21.4413 2.80236 24.2511 4.62739 25.0012 7.24129L25.44 8.76928L27.2439 8.23963C27.8854 8.05117 28.5422 7.95589 29.1957 7.95589C32.3792 7.95589 34.9692 10.0773 34.9692 12.6849C34.97 14.7593 33.3475 16.5724 30.9329 17.1953Z" fill="url(#paint0_linear_1_10)"/>
<path d="M11.168 24.7399C11.641 24.7399 12.0233 24.4267 12.0233 24.0393C12.0233 23.6519 11.641 23.3387 11.168 23.3387H10.5984V22.8714C10.5984 22.484 10.216 22.1708 9.74302 22.1708C9.27003 22.1708 8.8877 22.484 8.8877 22.8714V23.3387H8.31634C7.84334 23.3387 7.46101 23.6519 7.46101 24.0393C7.46101 24.4267 7.84334 24.7399 8.31634 24.7399H8.8877V25.2072C8.8877 25.5946 9.27003 25.9078 9.74302 25.9078C10.216 25.9078 10.5984 25.5946 10.5984 25.2072V24.7399H11.168Z" fill="url(#paint1_linear_1_10)"/>
<path d="M19.6143 24.7399C20.0873 24.7399 20.4697 24.4267 20.4697 24.0393C20.4697 23.6519 20.0873 23.3387 19.6143 23.3387H19.0447V22.8714C19.0447 22.484 18.6624 22.1708 18.1894 22.1708C17.7164 22.1708 17.334 22.484 17.334 22.8714V23.3387H16.7627C16.2897 23.3387 15.9074 23.6519 15.9074 24.0393C15.9074 24.4267 16.2897 24.7399 16.7627 24.7399H17.334V25.2072C17.334 25.5946 17.7164 25.9078 18.1894 25.9078C18.6624 25.9078 19.0447 25.5946 19.0447 25.2072V24.7399H19.6143Z" fill="url(#paint2_linear_1_10)"/>
<path d="M28.0607 23.3387H27.491V22.8714C27.491 22.484 27.1087 22.1708 26.6357 22.1708C26.1627 22.1708 25.7804 22.484 25.7804 22.8714V23.3387H25.209C24.736 23.3387 24.3537 23.6519 24.3537 24.0393C24.3537 24.4267 24.736 24.7399 25.209 24.7399H25.7804V25.2072C25.7804 25.5946 26.1627 25.9078 26.6357 25.9078C27.1087 25.9078 27.491 25.5946 27.491 25.2072V24.7399H28.0607C28.5337 24.7399 28.916 24.4267 28.916 24.0393C28.916 23.6519 28.5328 23.3387 28.0607 23.3387Z" fill="url(#paint3_linear_1_10)"/>
<path d="M14.4105 27.9367H13.8409V27.4694C13.8409 27.082 13.4586 26.7688 12.9856 26.7688C12.5126 26.7688 12.1302 27.082 12.1302 27.4694V27.9367H11.5597C11.0867 27.9367 10.7044 28.2499 10.7044 28.6373C10.7044 29.0247 11.0867 29.3379 11.5597 29.3379H12.1302V29.8052C12.1302 30.1926 12.5126 30.5058 12.9856 30.5058C13.4586 30.5058 13.8409 30.1926 13.8409 29.8052V29.3379H14.4105C14.8835 29.3379 15.2659 29.0247 15.2659 28.6373C15.2659 28.2499 14.8827 27.9367 14.4105 27.9367Z" fill="url(#paint4_linear_1_10)"/>
<path d="M22.8569 27.9367H22.2872V27.4694C22.2872 27.082 21.9049 26.7688 21.4319 26.7688C20.9589 26.7688 20.5766 27.082 20.5766 27.4694V27.9367H20.0061C19.5331 27.9367 19.1508 28.2499 19.1508 28.6373C19.1508 29.0247 19.5331 29.3379 20.0061 29.3379H20.5766V29.8052C20.5766 30.1926 20.9589 30.5058 21.4319 30.5058C21.9049 30.5058 22.2872 30.1926 22.2872 29.8052V29.3379H22.8569C23.3299 29.3379 23.7122 29.0247 23.7122 28.6373C23.7122 28.2499 23.329 27.9367 22.8569 27.9367Z" fill="url(#paint5_linear_1_10)"/>
<path d="M20.2369 7.64194H18.705L19.0752 6.99313C19.3645 6.48601 19.2192 5.82065 18.7521 5.50775C18.2844 5.19486 17.6714 5.35094 17.3828 5.85806L16.0738 8.15337C15.884 8.48641 15.8754 8.90433 16.0512 9.24672C16.227 9.58839 16.5594 9.80059 16.9203 9.80059H18.5378L16.716 13.3187C16.4473 13.8388 16.6178 14.4962 17.0968 14.7876C17.2507 14.8818 17.4179 14.9257 17.5831 14.9257C17.9314 14.9257 18.2691 14.7279 18.4522 14.3747L21.106 9.2496C21.2792 8.91512 21.2759 8.50727 21.0968 8.17639C20.9176 7.84551 20.5905 7.64194 20.2369 7.64194Z" fill="url(#paint6_linear_1_10)"/>
</g>
<defs>
<linearGradient id="paint0_linear_1_10" x1="35.1411" y1="0.25004" x2="7.81925" y2="33.6064" gradientUnits="userSpaceOnUse">
<stop stop-color="#31C2DD"/>
<stop offset="1" stop-color="#0B9BD7"/>
</linearGradient>
<linearGradient id="paint1_linear_1_10" x1="36.9653" y1="1.74124" x2="9.64163" y2="35.0998" gradientUnits="userSpaceOnUse">
<stop stop-color="#31C2DD"/>
<stop offset="1" stop-color="#0B9BD7"/>
</linearGradient>
<linearGradient id="paint2_linear_1_10" x1="41.1885" y1="5.2004" x2="13.8648" y2="38.5589" gradientUnits="userSpaceOnUse">
<stop stop-color="#31C2DD"/>
<stop offset="1" stop-color="#0B9BD7"/>
</linearGradient>
<linearGradient id="paint3_linear_1_10" x1="45.4108" y1="8.65984" x2="18.0871" y2="42.0184" gradientUnits="userSpaceOnUse">
<stop stop-color="#31C2DD"/>
<stop offset="1" stop-color="#0B9BD7"/>
</linearGradient>
<linearGradient id="paint4_linear_1_10" x1="41.3881" y1="5.3731" x2="14.0698" y2="38.7252" gradientUnits="userSpaceOnUse">
<stop stop-color="#31C2DD"/>
<stop offset="1" stop-color="#0B9BD7"/>
</linearGradient>
<linearGradient id="paint5_linear_1_10" x1="45.6129" y1="8.82988" x2="18.2928" y2="42.1843" gradientUnits="userSpaceOnUse">
<stop stop-color="#31C2DD"/>
<stop offset="1" stop-color="#0B9BD7"/>
</linearGradient>
<linearGradient id="paint6_linear_1_10" x1="36.2672" y1="-9.77072" x2="8.095" y2="16.2137" gradientUnits="userSpaceOnUse">
<stop stop-color="#31C2DD"/>
<stop offset="1" stop-color="#0B9BD7"/>
</linearGradient>
<clipPath id="clip0_1_10">
<rect width="44.88" height="36.98" fill="white"/>
</clipPath>
</defs>
</svg>
