<svg width="45" height="36" viewBox="0 0 45 36" fill="none" xmlns="http://www.w3.org/2000/svg">
<path d="M37.0882 7.79178C36.6849 7.79178 36.2831 7.83149 35.8835 7.90998C34.5058 3.76288 31.2818 1 27.5993 1C21.9767 0.5 18.0872 6.31892 17.2674 11.4864C13.4944 11.6055 31.5085 19.1595 31.5085 23C31.5085 26.8405 32.3526 24.9141 30.4796 27.1717C35.4095 25.5 30.8616 27.7725 31.5092 27.7725L37.4076 27.6454C38.1185 27.6454 38.8235 27.4856 39.5034 27.1717C42.7922 25.8503 45 22.0578 45 17.7186C44.9993 12.2455 41.4507 7.79178 37.0882 7.79178ZM38.5821 23.6645L38.507 23.6968C38.1464 23.8667 37.777 23.9517 37.4076 23.9517L31.5085 24.0788C31.1744 24.0788 30.8681 23.9922 30.4796 23.8628C28.3233 23.1444 31.5085 25.2236 31.5085 23C31.5085 20.2002 24.0698 16 20.9302 14.9757C18.1276 14.0613 19.5138 13.8301 19.7875 13.9002L21.5199 14.3462L21.5552 12.1282C21.6222 8.0291 24.3333 4.6937 27.5993 4.6937C30.4164 4.6937 32.8338 7.09922 33.48 10.5445L33.8575 12.5594L35.4095 11.8604C35.96 11.6111 36.5252 11.4864 37.0882 11.4864C39.8272 11.4864 42.0556 14.2825 42.0556 17.7195C42.0556 20.4538 40.6603 22.8436 38.5821 23.6645Z" fill="url(#paint0_linear_0_1)"/>
<path d="M25.1197 16.1464C24.7165 16.1464 24.3147 16.1861 23.9151 16.2646C22.5374 12.1175 19.3134 9.3546 15.6308 9.3546C11.3044 9.3546 7.63292 13.2902 6.81311 18.4577C3.04007 18.5768 0 22.4654 0 27.2275C0 31.068 2.04658 34.5216 4.9402 35.6122C5.56205 35.8689 6.20598 36 6.85358 36H25.4391C26.15 36 26.855 35.8402 27.535 35.5263C30.8238 34.2049 33.0316 30.4124 33.0316 26.0732C33.0308 20.6001 29.4823 16.1464 25.1197 16.1464ZM26.6137 32.0191L26.5386 32.0514C26.178 32.2214 25.8086 32.3063 25.4391 32.3063H6.85285C6.51874 32.3063 6.18537 32.2389 5.82404 32.0902C4.12849 31.4512 2.94366 29.4511 2.94366 27.2275C2.94366 24.4277 4.75917 22.1486 6.9912 22.1486C7.26717 22.1486 7.54534 22.1847 7.8191 22.2548L9.55145 22.7008L9.58677 20.4828C9.65374 16.3837 12.3649 13.0483 15.6308 13.0483C18.4479 13.0483 20.8654 15.4538 21.5116 18.8991L21.8891 20.914L23.4411 20.215C23.9916 19.9657 24.5568 19.841 25.1197 19.841C27.8588 19.841 30.0872 22.6371 30.0872 26.0741C30.0872 28.8084 28.6919 31.1982 26.6137 32.0191Z" fill="url(#paint1_linear_0_1)"/>
<defs>
<linearGradient id="paint0_linear_0_1" x1="42.1029" y1="1.84115" x2="6.73273" y2="30.0292" gradientUnits="userSpaceOnUse">
<stop stop-color="#31C2DD"/>
<stop offset="1" stop-color="#0B9BD7"/>
</linearGradient>
<linearGradient id="paint1_linear_0_1" x1="29.5448" y1="10.5503" x2="-5.8254" y2="38.7384" gradientUnits="userSpaceOnUse">
<stop stop-color="#31C2DD"/>
<stop offset="1" stop-color="#0B9BD7"/>
</linearGradient>
</defs>
</svg>
