<svg xmlns="http://www.w3.org/2000/svg" viewBox="0 0 32 32" id="weather">
    <path d="M25.48 17.52a5.94 5.94 0 0 0-4.48-2 5.34 5.34 0 0 0-.94.09 7.55 7.55 0 0 0-6-3.09H14a7.46 7.46 0 0 0-7.07 5A5 5 0 0 0 7 27.5h14a6 6 0 0 0 4.48-10zM29 13.5h-2.08a6.87 6.87 0 0 0-1.32-3.19l1.47-1.47a1 1 0 1 0-1.41-1.41L24.19 8.9A6.87 6.87 0 0 0 21 7.58V5.5a1 1 0 0 0-2 0v2.08a6.87 6.87 0 0 0-3.19 1.32l-1.47-1.47a1 1 0 1 0-1.41 1.41l1.47 1.47-.13.2a9.57 9.57 0 0 1 6.65 3H21A7.94 7.94 0 0 1 26.81 16c0-.17.08-.34.11-.52H29a1 1 0 0 0 0-2z" fill="#19c3e0"></path>
</svg>
